<svg width="145" height="28" viewBox="0 0 145 28" fill="none" xmlns="http://www.w3.org/2000/svg">
<g clip-path="url(#clip0_230_1254)">
<path d="M22.9292 9.70819C23.3732 5.43563 23.1161 3.41064 22.7294 1.80845C22.3428 0.206265 20.9315 0.45097 19.8217 1.56358C18.7118 2.67619 16.2924 6.45913 16.0704 8.08366C15.8484 9.70819 19.4443 12.423 19.4443 12.423C20.4358 12.8977 22.608 12.7997 22.9292 9.70819Z" fill="white"/>
<path d="M22.9292 9.70819C23.3732 5.43563 23.1161 3.41064 22.7294 1.80845C22.3428 0.206265 20.9315 0.45097 19.8217 1.56358C18.7118 2.67619 16.2924 6.45913 16.0704 8.08366C15.8484 9.70819 19.4443 12.423 19.4443 12.423C20.4358 12.8977 22.608 12.7997 22.9292 9.70819Z" fill="white"/>
<path d="M0.941875 9.70819C0.49794 5.43563 0.755001 3.41064 1.14165 1.80845C1.52829 0.206265 2.93958 0.45097 4.04942 1.56358C5.15926 2.67619 7.57871 6.45913 7.80068 8.08366C8.02265 9.70819 4.42677 12.423 4.42677 12.423C3.43531 12.8977 1.26309 12.7997 0.941875 9.70819Z" fill="white"/>
<path fill-rule="evenodd" clip-rule="evenodd" d="M21.5459 1.33517C21.259 1.33516 20.7888 1.53693 20.2917 2.03526C19.7955 2.53276 18.7641 4.04943 18.0007 5.32405C17.6237 5.95358 16.7693 7.2378 17.8232 8.23918C18.8771 9.24056 19.1565 9.46309 20.9529 11.6661C21.4028 11.4424 22.1223 11.0224 22.2661 9.63864C22.7042 5.42209 22.4461 3.47622 22.0814 1.96506C22.0065 1.65464 21.8987 1.50333 21.8206 1.43256C21.751 1.36948 21.6678 1.33518 21.5459 1.33517ZM19.4435 12.4226L19.0429 12.9559L19.0963 12.9961L19.1565 13.025C19.8056 13.3358 20.8137 13.4578 21.7332 13.0006C22.6975 12.5211 23.4133 11.4847 23.5907 9.77697C24.0405 5.44841 23.7845 3.34431 23.3759 1.65109C23.2575 1.16042 23.0439 0.741489 22.7139 0.442297C22.3755 0.135415 21.964 1.63849e-05 21.546 1.52217e-09C20.7531 -3.11099e-05 19.9628 0.476856 19.35 1.09114C18.7364 1.70625 17.8207 2.98647 17.0414 4.28761C16.0918 5.70235 15.6982 6.34207 15.4099 6.97076C15.0343 7.78964 15.4814 9.07889 15.941 9.8045C16.2833 10.345 16.7491 10.8754 17.2002 11.3319C17.6549 11.7922 18.1141 12.1967 18.4578 12.485C18.6302 12.6296 18.7748 12.7461 18.8771 12.8269C18.9282 12.8674 18.9688 12.899 18.997 12.9207C19.0112 12.9316 19.0222 12.9401 19.0299 12.946C19.0338 12.9489 19.0368 12.9512 19.039 12.9529L19.0424 12.9555L19.0427 12.9557C19.0428 12.9558 19.0429 12.9559 19.4435 12.4226Z" fill="#F33426"/>
<path fill-rule="evenodd" clip-rule="evenodd" d="M2.28025 1.33517C2.56713 1.33516 3.03736 1.53693 3.53445 2.03526C4.03071 2.53276 5.06205 4.04943 5.82544 5.32405C6.20248 5.95358 7.05692 7.2378 6.00301 8.23918C4.94911 9.24056 4.66964 9.46309 2.87327 11.6661C2.42333 11.4424 1.70385 11.0224 1.56008 9.63864C1.12196 5.42209 1.38008 3.47622 1.74476 1.96506C1.81967 1.65464 1.92752 1.50333 2.00558 1.43256C2.07515 1.36948 2.15838 1.33518 2.28025 1.33517ZM4.38265 12.4226L4.78324 12.9559L4.72989 12.9961L4.66964 13.025C4.02059 13.3358 3.01243 13.4578 2.09299 13.0006C1.12865 12.5211 0.412882 11.4847 0.235438 9.77697C-0.214316 5.44841 0.0416846 3.34431 0.450298 1.65109C0.568709 1.16042 0.782264 0.741489 1.11225 0.442297C1.45072 0.135415 1.86217 1.63849e-05 2.28019 1.52217e-09C3.07307 -3.11099e-05 3.86341 0.476856 4.47616 1.09114C5.08974 1.70625 6.0055 2.98647 6.78478 4.28761C7.73436 5.70235 8.12799 6.34207 8.4163 6.97076C8.79184 7.78964 8.34477 9.07889 7.88518 9.8045C7.54283 10.345 7.07705 10.8754 6.62594 11.3319C6.17123 11.7922 5.7121 12.1967 5.36838 12.485C5.19598 12.6296 5.05133 12.7461 4.94911 12.8269C4.89797 12.8674 4.85737 12.899 4.82913 12.9207C4.81501 12.9316 4.80398 12.9401 4.79625 12.946C4.79239 12.9489 4.78936 12.9512 4.78718 12.9529L4.78373 12.9555L4.78344 12.9557C4.78333 12.9558 4.78324 12.9559 4.38265 12.4226Z" fill="#F33426"/>
<path d="M21.5757 16.7153C21.5757 23.1687 19.1119 26.1064 11.8979 26.0174C4.68396 25.9284 1.97595 21.7449 2.22012 16.7158C2.46428 11.6866 3.15238 6.68174 11.8979 6.68164C20.6434 6.68154 21.5757 11.8608 21.5757 16.7153Z" fill="#F33426"/>
<ellipse cx="17.224" cy="15.5376" rx="1.19863" ry="1.20166" fill="white"/>
<ellipse cx="6.56777" cy="15.5376" rx="1.19863" ry="1.20166" fill="white"/>
<path d="M11.8955 7.46094C16.9113 7.46109 16.4236 11.3321 15.2695 13.1348C14.1288 14.9162 14.7003 16.0242 14.7139 16.0498C17.7104 17.6072 19.7086 21.7473 19.5088 24.1729C19.3088 26.598 16.912 27.2655 15.2695 26.042C15.1304 25.9383 14.9909 25.8325 14.8516 25.7266C14.1836 26.4311 13.118 26.8867 11.918 26.8867C10.7064 26.8866 9.6324 26.4222 8.96582 25.7061C8.83323 25.8161 8.70033 25.9293 8.56543 26.042C6.83419 27.488 4.39272 26.3756 4.30371 24.1729C4.21492 21.9698 6.01291 18.0748 9.23145 16.0498C9.23494 16.0202 9.43715 14.2569 8.18848 12.7344C6.92921 11.1989 6.87907 7.46094 11.8955 7.46094Z" fill="white"/>
<path fill-rule="evenodd" clip-rule="evenodd" d="M11.8967 6.92773C9.25443 6.92773 7.76233 7.92678 7.19638 9.32157C6.65648 10.6522 7.04074 12.1752 7.77833 13.0746C8.33292 13.7508 8.56518 14.4838 8.65787 15.0548C8.70413 15.3397 8.71494 15.5805 8.71443 15.7473L8.71442 15.7516C7.12966 16.8125 5.89895 18.2931 5.0644 19.7841C4.19484 21.3378 3.72339 22.9613 3.7731 24.1949C3.87232 26.6568 6.44032 27.9897 8.46477 26.7697C9.3773 27.5562 10.6514 28.0009 11.9189 28.0009C13.1954 28.0009 14.4787 27.5498 15.3926 26.7527C16.2605 27.2243 17.2589 27.3052 18.1212 26.9756C19.1552 26.5804 19.9255 25.621 20.0411 24.2173C20.1527 22.862 19.6558 21.1133 18.7773 19.5274C17.9284 17.9949 16.6792 16.534 15.1451 15.6763C15.1207 15.5846 15.095 15.4457 15.093 15.2635C15.0887 14.8711 15.1942 14.2438 15.7189 13.4245C16.3487 12.441 16.828 10.8593 16.4075 9.46805C16.1912 8.75255 15.739 8.10168 14.9793 7.63858C14.2295 7.18154 13.2148 6.92773 11.8967 6.92773ZM14.4459 26.0893C13.7828 25.5822 13.1145 25.0336 12.5764 24.4496C12.3216 24.1731 12.0854 23.8774 11.8904 23.5633C11.7128 23.8389 11.5017 24.1 11.273 24.3489C10.7431 24.9256 10.0622 25.4951 9.36778 26.071C10.0273 26.5768 10.927 26.8882 11.9189 26.8882C12.8987 26.8882 13.7886 26.5843 14.4459 26.0893ZM9.7619 16.1156L9.23367 16.0511C9.76189 16.1156 9.76192 16.1154 9.76195 16.1151L9.76201 16.1147L9.76213 16.1136L9.76244 16.1109L9.76288 16.1071L9.76326 16.1036C9.7636 16.1004 9.764 16.0967 9.76444 16.0924C9.76477 16.089 9.76513 16.0853 9.76551 16.0814C9.76724 16.0632 9.76936 16.0383 9.77143 16.0072C9.77557 15.9452 9.77955 15.8582 9.77987 15.7505C9.78052 15.5355 9.76663 15.2353 9.70949 14.8832C9.59538 14.1803 9.30601 13.2554 8.60131 12.3962C8.07961 11.7601 7.80906 10.6464 8.1833 9.72404C8.5315 8.8659 9.52247 7.99587 11.8967 7.99587C13.0868 7.99587 13.8922 8.22603 14.4257 8.55124C14.9493 8.87041 15.2434 9.30011 15.3878 9.77784C15.6887 10.773 15.3468 12.0284 14.8223 12.8474C14.1927 13.8306 14.0208 14.6608 14.0276 15.2753C14.031 15.5796 14.078 15.8228 14.1283 15.9972C14.1533 16.0843 14.1791 16.154 14.2006 16.2055C14.2113 16.2312 14.2209 16.2524 14.2289 16.269C14.2304 16.2721 14.2318 16.2751 14.2331 16.2779C14.2354 16.2825 14.2375 16.2867 14.2394 16.2904C14.2409 16.2934 14.2423 16.2961 14.2436 16.2985L14.2454 16.3019L14.2462 16.3034L14.2466 16.3041C14.2467 16.3045 14.2469 16.3048 14.7157 16.0511L14.2469 16.3048C14.2977 16.3991 14.3756 16.4759 14.4705 16.5252C15.8486 17.2414 17.0304 18.5739 17.8458 20.0459C18.6654 21.5255 19.0674 23.0592 18.9793 24.1294C18.8951 25.1513 18.3669 25.7385 17.7416 25.9775C17.0948 26.2248 16.2748 26.1255 15.5884 25.614C14.7645 25.0001 13.9591 24.3761 13.359 23.7248C12.7528 23.067 12.4294 22.4589 12.4294 21.8817V19.1668C12.4294 18.8719 12.1909 18.6328 11.8967 18.6328C11.6025 18.6328 11.364 18.8719 11.364 19.1668V21.8817C11.364 22.438 11.0723 22.9908 10.4894 23.6252C9.99346 24.1649 9.34823 24.7004 8.62444 25.301C8.49408 25.4092 8.36117 25.5195 8.22613 25.6323C6.8338 26.7956 4.90862 25.9121 4.83768 24.1518C4.79861 23.1824 5.18173 21.7573 5.99357 20.3068C6.79954 18.8668 7.99641 17.4597 9.51625 16.5034C9.65225 16.4179 9.7425 16.2754 9.7619 16.1156Z" fill="#F33426"/>
<path d="M14.5384 18.9659C14.5384 17.4972 13.0734 17.2969 11.897 17.2969C10.7206 17.2969 9.16681 17.6084 9.25559 19.0771C9.34438 20.5458 11.2977 20.8573 11.897 20.9686C12.5851 20.8351 14.5384 20.4346 14.5384 18.9659Z" fill="#F33426"/>
<path d="M139.015 22.7369C138.217 22.7369 137.493 22.531 136.845 22.1191C136.201 21.7027 135.69 21.0918 135.311 20.2865C134.937 19.4765 134.75 18.4835 134.75 17.3075C134.75 16.0994 134.944 15.095 135.332 14.2942C135.72 13.4888 136.236 12.8871 136.879 12.4889C137.527 12.0862 138.237 11.8849 139.009 11.8849C139.597 11.8849 140.088 11.9856 140.481 12.1869C140.878 12.3837 141.197 12.6308 141.439 12.9282C141.686 13.2211 141.873 13.5094 142.001 13.7931H142.09V8.50781H145V22.5653H142.124V20.8768H142.001C141.864 21.1696 141.67 21.4602 141.419 21.7485C141.172 22.0322 140.85 22.2679 140.453 22.4555C140.061 22.6431 139.581 22.7369 139.015 22.7369ZM139.94 20.41C140.41 20.41 140.807 20.2819 141.131 20.0256C141.46 19.7648 141.711 19.401 141.884 18.9342C142.062 18.4675 142.151 17.9207 142.151 17.2937C142.151 16.6668 142.065 16.1223 141.891 15.6601C141.718 15.1979 141.467 14.841 141.138 14.5893C140.809 14.3376 140.41 14.2118 139.94 14.2118C139.461 14.2118 139.057 14.3422 138.728 14.6031C138.399 14.8639 138.151 15.2254 137.982 15.6876C137.813 16.1497 137.728 16.6851 137.728 17.2937C137.728 17.9069 137.813 18.4492 137.982 18.9205C138.155 19.3873 138.404 19.7533 138.728 20.0188C139.057 20.2796 139.461 20.41 139.94 20.41Z" fill="#F33426"/>
<path d="M126.063 16.4719V22.5671H123.146V12.024H125.926V13.8841H126.049C126.282 13.271 126.673 12.7859 127.22 12.429C127.768 12.0675 128.432 11.8867 129.213 11.8867C129.943 11.8867 130.58 12.0469 131.123 12.3672C131.666 12.6875 132.088 13.1451 132.39 13.74C132.691 14.3303 132.841 15.035 132.841 15.8541V22.5671H129.925V16.3758C129.929 15.7306 129.765 15.2272 129.432 14.8657C129.099 14.4996 128.64 14.3166 128.056 14.3166C127.663 14.3166 127.316 14.4012 127.015 14.5705C126.718 14.7399 126.485 14.987 126.317 15.3119C126.152 15.6322 126.068 16.0189 126.063 16.4719Z" fill="#F33426"/>
<path d="M117.896 18.0775V12.0234H120.813V22.5666H118.013V20.6515H117.903C117.666 21.2693 117.271 21.7658 116.719 22.141C116.171 22.5162 115.502 22.7038 114.713 22.7038C114.01 22.7038 113.391 22.5437 112.857 22.2234C112.323 21.903 111.905 21.4477 111.604 20.8574C111.308 20.2671 111.157 19.5601 111.152 18.7364V12.0234H114.069V18.2148C114.074 18.8371 114.24 19.329 114.569 19.6905C114.897 20.052 115.338 20.2328 115.89 20.2328C116.242 20.2328 116.57 20.1527 116.876 19.9926C117.182 19.8278 117.428 19.5853 117.616 19.265C117.807 18.9446 117.901 18.5488 117.896 18.0775Z" fill="#F33426"/>
<path d="M104.082 22.773C103.019 22.773 102.099 22.5465 101.323 22.0935C100.552 21.6359 99.9561 20.9998 99.5361 20.1853C99.1162 19.3662 98.9062 18.4167 98.9062 17.3367C98.9062 16.2477 99.1162 15.2958 99.5361 14.4813C99.9561 13.6622 100.552 13.0261 101.323 12.5731C102.099 12.1155 103.019 11.8867 104.082 11.8867C105.146 11.8867 106.063 12.1155 106.835 12.5731C107.611 13.0261 108.209 13.6622 108.629 14.4813C109.048 15.2958 109.258 16.2477 109.258 17.3367C109.258 18.4167 109.048 19.3662 108.629 20.1853C108.209 20.9998 107.611 21.6359 106.835 22.0935C106.063 22.5465 105.146 22.773 104.082 22.773ZM104.096 20.5079C104.58 20.5079 104.984 20.3706 105.308 20.0961C105.632 19.8169 105.876 19.4371 106.041 18.9566C106.209 18.4762 106.294 17.9293 106.294 17.3161C106.294 16.703 106.209 16.1561 106.041 15.6757C105.876 15.1952 105.632 14.8154 105.308 14.5362C104.984 14.2571 104.58 14.1175 104.096 14.1175C103.608 14.1175 103.197 14.2571 102.864 14.5362C102.535 14.8154 102.286 15.1952 102.117 15.6757C101.953 16.1561 101.871 16.703 101.871 17.3161C101.871 17.9293 101.953 18.4762 102.117 18.9566C102.286 19.4371 102.535 19.8169 102.864 20.0961C103.197 20.3706 103.608 20.5079 104.096 20.5079Z" fill="#F33426"/>
<path d="M85 22.5653V8.50781H87.9646V14.3079H93.9829V8.50781H96.9406V22.5653H93.9829V16.7583H87.9646V22.5653H85Z" fill="#F33426"/>
<path d="M82.8195 12.024V14.2205H76.4863V12.024H82.8195ZM77.9241 9.49805H80.8408V19.3273C80.8408 19.5973 80.8819 19.8078 80.9641 19.9588C81.0462 20.1052 81.1603 20.2082 81.3064 20.2677C81.457 20.3272 81.6305 20.3569 81.8268 20.3569C81.9637 20.3569 82.1006 20.3455 82.2376 20.3226C82.3745 20.2951 82.4795 20.2745 82.5525 20.2608L83.0112 22.4367C82.8652 22.4825 82.6598 22.5351 82.395 22.5946C82.1303 22.6586 81.8085 22.6975 81.4296 22.7113C80.7267 22.7387 80.1105 22.6449 79.581 22.4298C79.0561 22.2148 78.6476 21.8807 78.3555 21.4277C78.0634 20.9747 77.9196 20.4027 77.9241 19.7117V9.49805Z" fill="white"/>
<path d="M68.1491 16.4719V22.5671H65.2324V12.024H68.0122V13.8841H68.1354C68.3682 13.271 68.7585 12.7859 69.3062 12.429C69.8539 12.0675 70.5181 11.8867 71.2986 11.8867C72.0289 11.8867 72.6657 12.0469 73.2088 12.3672C73.752 12.6875 74.1742 13.1451 74.4755 13.74C74.7767 14.3303 74.9273 15.035 74.9273 15.8541V22.5671H72.0107V16.3758C72.0152 15.7306 71.8509 15.2272 71.5177 14.8657C71.1845 14.4996 70.7258 14.3166 70.1415 14.3166C69.749 14.3166 69.4021 14.4012 69.1008 14.5705C68.8041 14.7399 68.5713 14.987 68.4024 15.3119C68.2381 15.6322 68.1537 16.0189 68.1491 16.4719Z" fill="white"/>
<path d="M58.5004 22.773C57.4186 22.773 56.4875 22.5534 55.7069 22.1141C54.931 21.6702 54.333 21.0433 53.9131 20.2334C53.4932 19.4188 53.2832 18.4556 53.2832 17.3436C53.2832 16.2591 53.4932 15.3073 53.9131 14.4882C54.333 13.6691 54.9241 13.0307 55.6864 12.5731C56.4532 12.1155 57.3524 11.8867 58.384 11.8867C59.0778 11.8867 59.7237 11.9988 60.3216 12.2231C60.9241 12.4427 61.449 12.7745 61.8963 13.2183C62.3482 13.6622 62.6997 14.2205 62.9507 14.8932C63.2018 15.5613 63.3273 16.3437 63.3273 17.2406V18.0437H54.4471V16.2316H60.5818C60.5818 15.8106 60.4905 15.4377 60.3079 15.1128C60.1253 14.7879 59.872 14.5339 59.5479 14.3509C59.2284 14.1633 58.8564 14.0695 58.4319 14.0695C57.9892 14.0695 57.5966 14.1724 57.2543 14.3784C56.9165 14.5797 56.6518 14.852 56.4601 15.1952C56.2684 15.5338 56.1702 15.9113 56.1657 16.3277V18.0506C56.1657 18.5723 56.2615 19.023 56.4532 19.4028C56.6495 19.7826 56.9256 20.0755 57.2817 20.2814C57.6377 20.4873 58.0599 20.5903 58.5483 20.5903C58.8724 20.5903 59.1691 20.5445 59.4384 20.453C59.7077 20.3615 59.9382 20.2242 60.1299 20.0412C60.3216 19.8581 60.4677 19.6339 60.5681 19.3685L63.2657 19.547C63.1288 20.1967 62.848 20.7642 62.4235 21.2492C62.0036 21.7297 61.4604 22.1049 60.794 22.3749C60.1322 22.6403 59.3676 22.773 58.5004 22.773Z" fill="white"/>
<path d="M52.5558 12.0234L48.8791 22.5666H45.5927L41.916 12.0234H44.997L47.1811 19.567H47.2907L49.4679 12.0234H52.5558Z" fill="white"/>
<path d="M31 22.5653V8.50781H40.4484V10.9583H33.9646V14.3079H39.9623V16.7583H33.9646V20.1149H40.4758V22.5653H31Z" fill="white"/>
</g>
<defs>
<clipPath id="clip0_230_1254">
<rect width="145" height="28" fill="white"/>
</clipPath>
</defs>
</svg>
