<svg width="196" height="52" viewBox="0 0 196 52" fill="none" xmlns="http://www.w3.org/2000/svg">
<g clip-path="url(#clip0_230_1199)">
<path d="M42.6319 18.0503C43.4573 10.1065 42.9794 6.34152 42.2605 3.36264C41.5416 0.383762 38.9177 0.838732 36.8542 2.90736C34.7907 4.97598 30.2924 12.0094 29.8797 15.0298C29.467 18.0503 36.1526 23.0977 36.1526 23.0977C37.996 23.9804 42.0347 23.7981 42.6319 18.0503Z" fill="white"/>
<path d="M42.6319 18.0503C43.4573 10.1065 42.9794 6.34152 42.2605 3.36264C41.5416 0.383762 38.9177 0.838732 36.8542 2.90736C34.7907 4.97598 30.2924 12.0094 29.8797 15.0298C29.467 18.0503 36.1526 23.0977 36.1526 23.0977C37.996 23.9804 42.0347 23.7981 42.6319 18.0503Z" fill="white"/>
<path d="M1.75673 18.0503C0.931343 10.1065 1.40928 6.34152 2.12816 3.36264C2.84703 0.383762 5.47098 0.838732 7.53446 2.90736C9.59793 4.97598 14.0963 12.0094 14.509 15.0298C14.9217 18.0503 8.23604 23.0977 8.23604 23.0977C6.39267 23.9804 2.35396 23.7981 1.75673 18.0503Z" fill="white"/>
<path fill-rule="evenodd" clip-rule="evenodd" d="M40.062 2.48243C39.5286 2.48241 38.6543 2.85755 37.7301 3.78407C36.8074 4.70905 34.8899 7.52893 33.4706 9.89876C32.7696 11.0692 31.1809 13.4569 33.1404 15.3187C35.0999 17.1806 35.6195 17.5943 38.9594 21.6903C39.796 21.2744 41.1337 20.4934 41.401 17.9207C42.2155 10.081 41.7356 6.46317 41.0576 3.65354C40.9183 3.07639 40.7178 2.79508 40.5727 2.66349C40.4433 2.5462 40.2886 2.48244 40.062 2.48243ZM36.1531 23.0968L35.4083 24.0883L35.5075 24.1632L35.6195 24.2168C36.8263 24.7946 38.7007 25.0214 40.4101 24.1714C42.2031 23.28 43.5339 21.353 43.8638 18.1779C44.7 10.13 44.2241 6.21793 43.4643 3.0698C43.2442 2.15751 42.8471 1.37862 42.2336 0.822343C41.6043 0.251771 40.8393 3.04637e-05 40.0621 2.83009e-09C38.5879 -5.78413e-05 37.1185 0.886597 35.9792 2.0287C34.8384 3.17235 33.1358 5.55262 31.6869 7.97177C29.9214 10.6021 29.1896 11.7915 28.6535 12.9604C27.9553 14.4829 28.7865 16.88 29.641 18.2291C30.2775 19.234 31.1435 20.2201 31.9822 21.069C32.8277 21.9246 33.6813 22.6767 34.3204 23.2128C34.6409 23.4817 34.9098 23.6983 35.0999 23.8485C35.195 23.9237 35.2705 23.9824 35.323 24.023C35.3492 24.0432 35.3697 24.0589 35.3841 24.0699C35.3913 24.0754 35.3969 24.0797 35.401 24.0827L35.4074 24.0876L35.4079 24.088C35.4081 24.0881 35.4083 24.0883 36.1531 23.0968Z" fill="#F33426"/>
<path fill-rule="evenodd" clip-rule="evenodd" d="M4.24464 2.48243C4.77804 2.48241 5.65231 2.85755 6.57652 3.78407C7.4992 4.70905 9.41672 7.52893 10.8361 9.89876C11.5371 11.0692 13.1257 13.4569 11.1662 15.3187C9.20675 17.1806 8.68714 17.5943 5.34722 21.6903C4.51068 21.2744 3.17298 20.4934 2.90567 17.9207C2.0911 10.081 2.57101 6.46317 3.24904 3.65354C3.38832 3.07639 3.58884 2.79508 3.73396 2.66349C3.86332 2.5462 4.01807 2.48244 4.24464 2.48243ZM8.15355 23.0968L8.89834 24.0883L8.79917 24.1632L8.68714 24.2168C7.48038 24.7946 5.60595 25.0214 3.89649 24.1714C2.10354 23.28 0.772738 21.353 0.442825 18.1779C-0.393383 10.13 0.0825878 6.21793 0.842304 3.0698C1.06246 2.15751 1.45951 1.37862 2.07304 0.822343C2.70234 0.251771 3.46734 3.04637e-05 4.24455 2.83009e-09C5.71871 -5.78413e-05 7.18815 0.886597 8.32741 2.0287C9.46821 3.17235 11.1708 5.55262 12.6197 7.97177C14.3852 10.6021 15.1171 11.7915 15.6531 12.9604C16.3514 14.4829 15.5201 16.88 14.6656 18.2291C14.0291 19.234 13.1631 20.2201 12.3244 21.069C11.479 21.9246 10.6253 22.6767 9.98627 23.2128C9.66574 23.4817 9.3968 23.6983 9.20675 23.8485C9.11166 23.9237 9.03618 23.9824 8.98368 24.023C8.95742 24.0432 8.9369 24.0589 8.92254 24.0699C8.91536 24.0754 8.90972 24.0797 8.90567 24.0827L8.89926 24.0876L8.89872 24.088C8.89852 24.0881 8.89834 24.0883 8.15355 23.0968Z" fill="#F33426"/>
<path d="M40.1145 31.081C40.1145 43.0794 35.5336 48.5413 22.121 48.3758C8.70848 48.2103 3.6736 40.4323 4.12757 31.0818C4.58153 21.7313 5.86089 12.426 22.121 12.4258C38.3812 12.4256 40.1145 22.0552 40.1145 31.081Z" fill="#F33426"/>
<ellipse cx="32.0254" cy="28.8885" rx="2.22855" ry="2.23419" fill="white"/>
<ellipse cx="12.2168" cy="28.8885" rx="2.22855" ry="2.23419" fill="white"/>
<path d="M22.1221 13.8711C31.4486 13.8713 30.5405 21.0697 28.3945 24.4209C26.2486 27.7721 27.3633 29.8408 27.3633 29.8408C32.9345 32.7364 36.6488 40.4327 36.2773 44.9424C35.9059 49.4521 31.4484 50.6935 28.3945 48.418C28.1354 48.2249 27.8767 48.0274 27.6172 47.8301C26.3753 49.1407 24.3951 49.9902 22.1631 49.9902C19.912 49.9902 17.9165 49.1266 16.6768 47.7969C16.4305 48.0012 16.1822 48.2086 15.9316 48.418C12.7127 51.1072 8.17295 49.0383 8.00781 44.9424C7.84274 40.8464 11.1851 33.6059 17.1689 29.8408C17.1689 29.8408 17.5708 26.5306 15.2295 23.6758C12.8884 20.8208 12.7955 13.8711 22.1221 13.8711Z" fill="white"/>
<path fill-rule="evenodd" clip-rule="evenodd" d="M22.1222 12.8789C17.2095 12.8789 14.4353 14.7364 13.3831 17.3297C12.3793 19.8036 13.0937 22.6354 14.4651 24.3075C15.4962 25.5647 15.9281 26.9275 16.1004 27.9892C16.1864 28.519 16.2065 28.9667 16.2055 29.2767L16.2055 29.2847C13.2591 31.2573 10.9708 34.0099 9.41922 36.7822C7.80247 39.6708 6.92592 42.6895 7.01836 44.983C7.20283 49.5603 11.9774 52.0384 15.7414 49.7702C17.438 51.2325 19.8069 52.0593 22.1634 52.0593C24.5369 52.0593 26.9229 51.2205 28.6219 49.7387C30.2356 50.6154 32.0919 50.7658 33.6952 50.153C35.6175 49.4182 37.0497 47.6344 37.2647 45.0247C37.4722 42.5048 36.5483 39.2534 34.9149 36.3048C33.3366 33.4555 31.0141 30.7395 28.1618 29.1447C28.1165 28.9742 28.0686 28.7159 28.0649 28.3773C28.0569 27.6477 28.2532 26.4813 29.2286 24.958C30.3995 23.1295 31.2908 20.1887 30.5089 17.602C30.1068 16.2717 29.2659 15.0616 27.8535 14.2006C26.4595 13.3508 24.5728 12.8789 22.1222 12.8789ZM26.8618 48.5052C25.6289 47.5623 24.3865 46.5424 23.3859 45.4565C22.9123 44.9425 22.473 44.3927 22.1104 43.8086C21.7804 44.3211 21.3878 44.8065 20.9626 45.2693C19.9773 46.3415 18.7113 47.4003 17.4203 48.4712C18.6465 49.4116 20.3193 49.9906 22.1634 49.9906C23.9852 49.9906 25.6398 49.4255 26.8618 48.5052ZM18.1531 29.9614L17.1709 29.8417C18.1531 29.9614 18.1531 29.961 18.1532 29.9606L18.1533 29.9597L18.1535 29.9577L18.1541 29.9528L18.1549 29.9457L18.1556 29.9393C18.1562 29.9333 18.157 29.9263 18.1578 29.9183C18.1584 29.9121 18.1591 29.9052 18.1598 29.8978C18.163 29.864 18.1669 29.8177 18.1708 29.76C18.1785 29.6446 18.1859 29.483 18.1865 29.2828C18.1877 28.883 18.1619 28.3248 18.0556 27.6702C17.8434 26.3633 17.3054 24.6437 15.9952 23.0462C15.0252 21.8635 14.5222 19.7928 15.218 18.078C15.8654 16.4824 17.7079 14.8648 22.1222 14.8648C24.335 14.8648 25.8324 15.2928 26.8243 15.8974C27.7977 16.4908 28.3446 17.2898 28.6131 18.178C29.1724 20.0283 28.5368 22.3623 27.5616 23.8851C26.3911 25.7131 26.0715 27.2567 26.0841 28.3992C26.0903 28.9649 26.1779 29.4172 26.2712 29.7414C26.3178 29.9032 26.3658 30.0328 26.4057 30.1286C26.4256 30.1765 26.4435 30.2159 26.4583 30.2468C26.4611 30.2525 26.4637 30.258 26.4663 30.2632C26.4705 30.2718 26.4744 30.2796 26.4779 30.2865C26.4807 30.2921 26.4833 30.2971 26.4856 30.3016L26.489 30.3079L26.4905 30.3107L26.4912 30.312C26.4915 30.3127 26.4919 30.3133 27.3634 29.8415L26.4919 30.3133C26.5863 30.4886 26.7311 30.6314 26.9075 30.7231C29.4698 32.0547 31.6671 34.5321 33.1831 37.269C34.7069 40.0198 35.4544 42.8714 35.2905 44.8612C35.134 46.7612 34.1519 47.853 32.9894 48.2973C31.7868 48.757 30.2622 48.5724 28.986 47.6214C27.4542 46.4801 25.9568 45.3199 24.841 44.1089C23.714 42.8858 23.1126 41.7553 23.1126 40.6821V35.6345C23.1126 35.0861 22.6692 34.6415 22.1222 34.6415C21.5752 34.6415 21.1317 35.0861 21.1317 35.6345V40.6821C21.1317 41.7165 20.5894 42.7443 19.5056 43.9238C18.5836 44.9271 17.3839 45.9227 16.0382 47.0395C15.7959 47.2407 15.5488 47.4458 15.2977 47.6555C12.709 49.8183 9.12958 48.1756 8.99768 44.9029C8.92503 43.1004 9.63736 40.4509 11.1468 37.754C12.6453 35.0767 14.8706 32.4605 17.6963 30.6826C17.9492 30.5235 18.117 30.2585 18.1531 29.9614Z" fill="#F33426"/>
<path d="M27.032 35.2613C27.032 32.5306 24.3082 32.1582 22.121 32.1582C19.9337 32.1582 17.0448 32.7375 17.2099 35.4681C17.375 38.1988 21.0067 38.778 22.121 38.9849C23.4003 38.7367 27.032 37.992 27.032 35.2613Z" fill="#F33426"/>
<path d="M188.592 35.5214C187.597 35.5214 186.695 35.2648 185.888 34.7517C185.086 34.2329 184.449 33.4717 183.977 32.4683C183.511 31.4592 183.277 30.222 183.277 28.7567C183.277 27.2515 183.519 26.0001 184.002 25.0024C184.486 23.9989 185.128 23.2492 185.93 22.7532C186.738 22.2514 187.622 22.0006 188.583 22.0006C189.317 22.0006 189.928 22.126 190.417 22.3769C190.912 22.622 191.31 22.9299 191.612 23.3005C191.919 23.6654 192.152 24.0246 192.311 24.3781H192.422V17.793H196.047V35.3076H192.465V33.2038H192.311C192.141 33.5687 191.899 33.9307 191.586 34.2899C191.279 34.6434 190.878 34.937 190.383 35.1708C189.894 35.4045 189.297 35.5214 188.592 35.5214ZM189.743 32.6222C190.329 32.6222 190.824 32.4626 191.228 32.1433C191.637 31.8183 191.95 31.3651 192.166 30.7835C192.388 30.202 192.499 29.5207 192.499 28.7396C192.499 27.9585 192.391 27.2801 192.175 26.7042C191.959 26.1284 191.646 25.6837 191.236 25.3701C190.827 25.0565 190.329 24.8997 189.743 24.8997C189.146 24.8997 188.643 25.0622 188.234 25.3872C187.824 25.7122 187.514 26.1626 187.304 26.7384C187.093 27.3143 186.988 27.9813 186.988 28.7396C186.988 29.5036 187.093 30.1792 187.304 30.7664C187.52 31.348 187.83 31.8041 188.234 32.1348C188.643 32.4597 189.146 32.6222 189.743 32.6222Z" fill="#F33426"/>
<path d="M172.454 27.7147V35.309H168.82V22.173H172.284V24.4906H172.437C172.727 23.7266 173.214 23.1223 173.896 22.6776C174.578 22.2272 175.406 22.002 176.378 22.002C177.288 22.002 178.082 22.2015 178.758 22.6006C179.435 22.9997 179.961 23.5698 180.336 24.311C180.712 25.0465 180.899 25.9245 180.899 26.945V35.309H177.265V27.595C177.271 26.7911 177.066 26.164 176.651 25.7135C176.236 25.2574 175.665 25.0294 174.937 25.0294C174.448 25.0294 174.015 25.1349 173.64 25.3458C173.27 25.5568 172.98 25.8646 172.77 26.2694C172.565 26.6685 172.46 27.1503 172.454 27.7147Z" fill="#F33426"/>
<path d="M162.279 29.7148V22.1719H165.913V35.3078H162.425V32.9218H162.288C161.992 33.6915 161.5 34.3101 160.812 34.7776C160.13 35.2451 159.297 35.4789 158.313 35.4789C157.437 35.4789 156.666 35.2793 156.001 34.8802C155.336 34.4811 154.815 33.9139 154.44 33.1784C154.07 32.4429 153.883 31.562 153.877 30.5358V22.1719H157.511V29.8858C157.517 30.6612 157.724 31.2741 158.134 31.7245C158.543 32.1749 159.092 32.4001 159.78 32.4001C160.218 32.4001 160.627 32.3004 161.008 32.1008C161.389 31.8956 161.697 31.5934 161.93 31.1943C162.169 30.7952 162.285 30.302 162.279 29.7148Z" fill="#F33426"/>
<path d="M145.066 35.5655C143.741 35.5655 142.595 35.2833 141.628 34.7189C140.667 34.1487 139.925 33.3562 139.402 32.3414C138.879 31.3208 138.617 30.1378 138.617 28.7923C138.617 27.4354 138.879 26.2495 139.402 25.2346C139.925 24.2141 140.667 23.4216 141.628 22.8572C142.595 22.287 143.741 22.002 145.066 22.002C146.391 22.002 147.534 22.287 148.495 22.8572C149.462 23.4216 150.207 24.2141 150.73 25.2346C151.254 26.2495 151.515 27.4354 151.515 28.7923C151.515 30.1378 151.254 31.3208 150.73 32.3414C150.207 33.3562 149.462 34.1487 148.495 34.7189C147.534 35.2833 146.391 35.5655 145.066 35.5655ZM145.083 32.7433C145.686 32.7433 146.189 32.5723 146.593 32.2302C146.997 31.8824 147.301 31.4092 147.506 30.8106C147.716 30.2119 147.822 29.5306 147.822 28.7666C147.822 28.0026 147.716 27.3213 147.506 26.7227C147.301 26.124 146.997 25.6508 146.593 25.303C146.189 24.9553 145.686 24.7814 145.083 24.7814C144.475 24.7814 143.963 24.9553 143.548 25.303C143.138 25.6508 142.828 26.124 142.618 26.7227C142.413 27.3213 142.311 28.0026 142.311 28.7666C142.311 29.5306 142.413 30.2119 142.618 30.8106C142.828 31.4092 143.138 31.8824 143.548 32.2302C143.963 32.5723 144.475 32.7433 145.083 32.7433Z" fill="#F33426"/>
<path d="M121.291 35.3076V17.793H124.985V25.0195H132.483V17.793H136.168V35.3076H132.483V28.0725H124.985V35.3076H121.291Z" fill="#F33426"/>
<path d="M118.574 22.1725V24.9092H110.684V22.1725H118.574ZM112.475 19.0254H116.109V31.2719C116.109 31.6083 116.16 31.8706 116.263 32.0587C116.365 32.2412 116.507 32.3695 116.689 32.4436C116.877 32.5177 117.093 32.5547 117.337 32.5547C117.508 32.5547 117.679 32.5405 117.849 32.512C118.02 32.4778 118.151 32.4521 118.242 32.435L118.813 35.146C118.631 35.203 118.375 35.2686 118.045 35.3427C117.716 35.4225 117.315 35.471 116.843 35.4881C115.967 35.5223 115.199 35.4054 114.539 35.1375C113.885 34.8695 113.376 34.4533 113.012 33.8889C112.648 33.3244 112.469 32.6118 112.475 31.7509V19.0254Z" fill="#333333"/>
<path d="M100.296 27.7147V35.309H96.6621V22.173H100.125V24.4906H100.279C100.569 23.7266 101.055 23.1223 101.738 22.6776C102.42 22.2272 103.248 22.002 104.22 22.002C105.13 22.002 105.923 22.2015 106.6 22.6006C107.277 22.9997 107.803 23.5698 108.178 24.311C108.554 25.0465 108.741 25.9245 108.741 26.945V35.309H105.107V27.595C105.113 26.7911 104.908 26.164 104.493 25.7135C104.078 25.2574 103.506 25.0294 102.778 25.0294C102.289 25.0294 101.857 25.1349 101.482 25.3458C101.112 25.5568 100.822 25.8646 100.612 26.2694C100.407 26.6685 100.302 27.1503 100.296 27.7147Z" fill="#333333"/>
<path d="M88.2756 35.5655C86.9278 35.5655 85.7677 35.2919 84.7952 34.7445C83.8284 34.1915 83.0834 33.4104 82.5602 32.4013C82.037 31.3864 81.7754 30.1863 81.7754 28.8008C81.7754 27.4496 82.037 26.2637 82.5602 25.2432C83.0834 24.2226 83.8199 23.4273 84.7696 22.8572C85.725 22.287 86.8453 22.002 88.1306 22.002C88.995 22.002 89.7997 22.1416 90.5447 22.421C91.2954 22.6947 91.9494 23.108 92.5067 23.6611C93.0698 24.2141 93.5077 24.9097 93.8204 25.7478C94.1332 26.5802 94.2896 27.5551 94.2896 28.6726V29.6731H83.2256V27.4154H90.8689C90.8689 26.8909 90.7552 26.4262 90.5277 26.0214C90.3002 25.6166 89.9846 25.3002 89.5808 25.0721C89.1827 24.8384 88.7192 24.7215 88.1903 24.7215C87.6387 24.7215 87.1496 24.8498 86.7231 25.1063C86.3022 25.3572 85.9724 25.6964 85.7335 26.124C85.4947 26.5459 85.3724 27.0163 85.3667 27.5351V29.6817C85.3667 30.3317 85.4862 30.8932 85.725 31.3665C85.9695 31.8397 86.3136 32.2046 86.7572 32.4611C87.2008 32.7177 87.7268 32.846 88.3353 32.846C88.7391 32.846 89.1088 32.7889 89.4443 32.6749C89.7798 32.5609 90.067 32.3899 90.3059 32.1618C90.5447 31.9337 90.7267 31.6544 90.8518 31.3237L94.2128 31.546C94.0422 32.3556 93.6925 33.0626 93.1636 33.667C92.6404 34.2656 91.9636 34.7331 91.1333 35.0695C90.3087 35.4002 89.3562 35.5655 88.2756 35.5655Z" fill="#333333"/>
<path d="M80.8677 22.1719L76.2868 35.3078H72.1922L67.6113 22.1719H71.45L74.1713 31.5706H74.3078L77.0205 22.1719H80.8677Z" fill="#333333"/>
<path d="M54.0117 35.3076V17.793H65.7838V20.8461H57.7054V25.0195H65.1781V28.0725H57.7054V32.2545H65.8179V35.3076H54.0117Z" fill="#333333"/>
</g>
<defs>
<clipPath id="clip0_230_1199">
<rect width="196" height="52" fill="white"/>
</clipPath>
</defs>
</svg>
